# xmcd
#
# Track frame offsets: 
#        150
#        22738
#        39555
#        54781
#        67364
#        90386
#        106379
#        120148
#        143492
#        153353
#        173600
#        186973
#        201122
#        213200
#
# Disc length: 3052 seconds
#
# Revision: 1
# Processed by: cddbd v1.5.2PL0 Copyright (c) Steve Scherf et al.
# Submitted via: ExactAudioCopy v0.95b4
#
DISCID=ab0bea0e
DTITLE=Various Artist - Golden Legends(Great Blues Masters)
DYEAR=2005
DGENRE=Blues
TTITLE0=B.B. King - The Thrill Is Gone
TTITLE1=Johnny Otis - Low Down Dirty Dog Blues
TTITLE2=Mississippi - Big Fat Mamma
TTITLE3=Big Maybelle - I Cried for You
TTITLE4=John Mayall - Baby What You Want Me To Do
TTITLE5=Memphis Slim - Cow Cow Blues
TTITLE6=Leadbelly - The Bourgeois Blues
TTITLE7=Pee Wee Crayton - Blues After Hours
TTITLE8=Buddy Guy - First Time I Met The Blues
TTITLE9=Buddy Guy and Junior Wells - Every Day I Have the Blues
TTITLE10=Lightnin' Hopkins - Mojo Hand
TTITLE11=Ray Charles - Blues Is My Middle Name
TTITLE12=Charles Brown - Trouble Blues
TTITLE13=James Cotton Band - Good Morning Little School Girl
EXTD=
EXTT0=
EXTT1=
EXTT2=
EXTT3=
EXTT4=
EXTT5=
EXTT6=
EXTT7=
EXTT8=
EXTT9=
EXTT10=
EXTT11=
EXTT12=
EXTT13=
PLAYORDER=
